<svg id="logo_white_red" xmlns="http://www.w3.org/2000/svg" width="302.213" height="50" viewBox="0 0 302.213 50">
  <path id="Path_1" data-name="Path 1" d="M2161.979,490.012h-12.722a2.171,2.171,0,0,1-2.138-2.547l1.215-6.908a2.171,2.171,0,0,1,2.138-1.795H2163.2a2.171,2.171,0,0,1,2.138,2.549l-1.223,6.907A2.171,2.171,0,0,1,2161.979,490.012Z" transform="translate(-1863.16 -478.762)" fill="#fff"/>
  <g id="Group_22" data-name="Group 22" transform="translate(0 5.771)">
    <g id="Group_21" data-name="Group 21" transform="translate(0 0)">
      <g id="Group_1" data-name="Group 1" transform="translate(11.288 7.491)">
        <path id="Path_2" data-name="Path 2" d="M1505.224,511.249v1.2c-.16.007-.323.017-.489.033l-4.159-.1-21.32-.536Z" transform="translate(-1479.256 -511.249)" fill="#fff"/>
      </g>
      <g id="Group_2" data-name="Group 2" transform="translate(0 14.809)">
        <path id="Path_3" data-name="Path 3" d="M1451.6,529.829l25.968-.653v1.307Z" transform="translate(-1451.605 -529.175)" fill="#fff"/>
      </g>
      <g id="Group_3" data-name="Group 3" transform="translate(7.52 23.806)">
        <path id="Path_4" data-name="Path 4" d="M1470.025,551.866l19.027-.653v1.307Z" transform="translate(-1470.025 -551.212)" fill="#fff"/>
      </g>
      <g id="Group_4" data-name="Group 4" transform="translate(76.618 21.028)">
        <path id="Path_5" data-name="Path 5" d="M1646.091,544.407a6.779,6.779,0,0,0-2.948.671l.556,1.05a5.576,5.576,0,0,1,2.391-.537,5.642,5.642,0,1,1-3.4,1.152l-.564-1.057a6.808,6.808,0,1,0,3.965-1.278Z" transform="translate(-1639.281 -544.407)" fill="#fff"/>
      </g>
      <g id="Group_5" data-name="Group 5" transform="translate(28.817 27.502)">
        <path id="Path_6" data-name="Path 6" d="M1527.335,561.958l11.016,2.581v0Z" transform="translate(-1525.236 -561.268)" fill="#fff"/>
        <path id="Path_7" data-name="Path 7" d="M1534.677,564.6a6.811,6.811,0,0,1-12.484-3.768,5.344,5.344,0,0,1,.028-.568l1.239,1.543a5.63,5.63,0,0,0,9.97,2.5Z" transform="translate(-1522.193 -560.267)" fill="#fff"/>
      </g>
      <g id="Group_6" data-name="Group 6" transform="translate(30.573 21.26)">
        <path id="Path_8" data-name="Path 8" d="M1531.552,544.977a6.773,6.773,0,0,0-5.058,2.249h1.759a5.619,5.619,0,0,1,5.37-.667l.576-1.046A6.821,6.821,0,0,0,1531.552,544.977Z" transform="translate(-1526.494 -544.977)" fill="#fff"/>
        <path id="Path_9" data-name="Path 9" d="M1550.218,553.371c0,.107,0,.209-.012.316l-1.179-.6a5.6,5.6,0,0,0-2.5-4.391l.572-1.042A6.777,6.777,0,0,1,1550.218,553.371Z" transform="translate(-1538.35 -546.561)" fill="#fff"/>
      </g>
      <g id="Group_7" data-name="Group 7" transform="translate(69.756)">
        <path id="Path_10" data-name="Path 10" d="M1640.572,535.081a10.537,10.537,0,0,0-4.735,1.117l.557,1.046a9.462,9.462,0,1,1-1.026.592l-.556-1.05a10.61,10.61,0,1,0,5.76-1.7Z" transform="translate(-1626.9 -517.861)" fill="#fff"/>
        <path id="Path_11" data-name="Path 11" d="M1636.193,521.491a.6.6,0,0,1-.276.071.592.592,0,0,1-.525-.316l-2.647-4.983-.564-1.057-1.239-2.331-.556-1.05-.951-1.787-.56-1.054-6.4-12.042,5.015-.836,1.992-2.948a.593.593,0,0,1,.983.663l-2.277,3.369-3.9.647,5.618,10.57.557,1.046.947,1.784.557,1.046,1.231,2.316.556,1.05,2.683,5.046A.587.587,0,0,1,1636.193,521.491Z" transform="translate(-1622.474 -492.899)" fill="#fff"/>
      </g>
      <g id="Group_8" data-name="Group 8" transform="translate(25.014 17.22)">
        <path id="Path_12" data-name="Path 12" d="M1532.924,550.579a10.619,10.619,0,1,1-4.837-14.452l-.573,1.038a9.434,9.434,0,1,0,4.214,13.134Z" transform="translate(-1512.876 -535.081)" fill="#fff"/>
        <path id="Path_13" data-name="Path 13" d="M1556.833,548.043a10.692,10.692,0,0,1-.265,2.348l-1.093-.552a9.43,9.43,0,0,0-4.2-9.761l.568-1.034A10.618,10.618,0,0,1,1556.833,548.043Z" transform="translate(-1535.598 -537.426)" fill="#fff"/>
      </g>
      <g id="Group_9" data-name="Group 9" transform="translate(72.81 14.016)">
        <path id="Path_14" data-name="Path 14" d="M1633.3,532.3l.56,1.054a12.385,12.385,0,0,0-2.864,2.458.6.6,0,0,1-.45.2.585.585,0,0,1-.387-.146.593.593,0,0,1-.063-.833A13.834,13.834,0,0,1,1633.3,532.3Z" transform="translate(-1629.955 -530.23)" fill="#fff"/>
        <path id="Path_15" data-name="Path 15" d="M1651.911,528.784a.588.588,0,0,1-.754.359,12.654,12.654,0,0,0-9.919.627l-.557-1.046a13.82,13.82,0,0,1,10.87-.694A.589.589,0,0,1,1651.911,528.784Z" transform="translate(-1636.303 -527.233)" fill="#fff"/>
      </g>
      <g id="Group_10" data-name="Group 10" transform="translate(36.349 15.944)">
        <path id="Path_16" data-name="Path 16" d="M1546.66,532.831l-1.109,2.016-.568,1.034-1.365,2.482-.572,1.042-1.346,2.442-1.057-.532,1.353-2.462.576-1.045,1.373-2.494.572-1.038,1.109-2.016a.591.591,0,1,1,1.034.572Z" transform="translate(-1540.643 -531.953)" fill="#fff"/>
      </g>
      <g id="Group_11" data-name="Group 11" transform="translate(28.222 7.491)">
        <path id="Path_17" data-name="Path 17" d="M1546.747,513.923c-.071.083-.146.174-.217.265a7.038,7.038,0,0,0-.635.919h-9.619l-.173-.189c-.217-.229-5.22-5.417-12.969-.174l.126.051-.233.1a11.93,11.93,0,0,0-1.164.6l-1.128-.462.828-.627c8.211-6.222,14.086-1.527,15.21-.49Z" transform="translate(-1520.734 -511.249)" fill="#fff"/>
      </g>
      <g id="Group_12" data-name="Group 12" transform="translate(22.185 5.681)">
        <path id="Path_18" data-name="Path 18" d="M1581.9,526.131a1.329,1.329,0,0,0,.118.174h0A1.354,1.354,0,0,1,1581.9,526.131Z" transform="translate(-1550.894 -518.245)" fill="#fff"/>
        <path id="Path_19" data-name="Path 19" d="M1552.785,507.893q-.131-.087-.267-.164a9.641,9.641,0,0,0-6.572-.634c-3.265.627-6.527,2.115-8.448,4.829-.616.871-1.064,2.1-.423,2.956l-13.859-.016a8.334,8.334,0,0,1-4.3-.863l-3.477-1.471c-.341-.145-2.422-.969-1.781-.5a.3.3,0,0,1-.038.539,17.053,17.053,0,0,0-2.99,2.146,20.48,20.48,0,0,0-2.544,3.018l-2.139,2.82,4.214.01a2.025,2.025,0,0,0,.727-.087,2.307,2.307,0,0,0,.832-.71,11.244,11.244,0,0,1,6.147-3.286,33.5,33.5,0,0,1,7.059-.475l22.778.078a15.79,15.79,0,0,0,3.6-.263,4.94,4.94,0,0,0,3.407-2.386C1555.661,511.519,1554.582,509.08,1552.785,507.893Zm-42.364,11.483h-2.277a17.116,17.116,0,0,1,6.388-5.915l4.048,1.661C1513.432,516.014,1511.08,518.531,1510.421,519.376Zm43.445-7.217a2.44,2.44,0,0,1-.108.44,3.4,3.4,0,0,1-2.251,1.97,10.208,10.208,0,0,1-3.074.317,63.231,63.231,0,0,1-9.73-.441c-.321-.049-.7-.159-.784-.474a.769.769,0,0,1,.057-.44c.7-1.939,2.929-3.391,4.7-4.245a12.831,12.831,0,0,1,6.276-1.272,6.343,6.343,0,0,1,3.615,1.168A3.345,3.345,0,0,1,1553.867,512.159Z" transform="translate(-1505.947 -506.814)" fill="#fff"/>
      </g>
      <g id="Group_13" data-name="Group 13" transform="translate(57.783 16.977)">
        <path id="Path_20" data-name="Path 20" d="M1599.806,535.273h-6.266a.395.395,0,1,1,0-.789h6.266a.395.395,0,0,1,0,.789Z" transform="translate(-1593.145 -534.484)" fill="#fff"/>
      </g>
      <g id="Group_14" data-name="Group 14" transform="translate(58.572 18.813)">
        <path id="Path_21" data-name="Path 21" d="M1600.161,539.772h-4.688a.395.395,0,1,1,0-.789h4.688a.395.395,0,0,1,0,.789Z" transform="translate(-1595.078 -538.983)" fill="#fff"/>
      </g>
      <g id="Group_15" data-name="Group 15" transform="translate(59.361 20.65)">
        <path id="Path_22" data-name="Path 22" d="M1600.515,544.27h-3.11a.395.395,0,1,1,0-.789h3.11a.395.395,0,1,1,0,.789Z" transform="translate(-1597.011 -543.481)" fill="#fff"/>
      </g>
      <g id="Group_16" data-name="Group 16" transform="translate(27.886 14.924)">
        <path id="Path_23" data-name="Path 23" d="M1562.058,535.339a3.031,3.031,0,0,0-2.115-1.038l-2.8-.166-.7,3.721h-6.459l-1.381-8.4h-1.2l1.1,6.692-7.694.233-1.906-6.924h-1.227l4.822,17.538-4.49-2.276-1.093-.552-2.462-1.247-1.179-.6-3.843-1.949-1.057-.532-3.539-1.8h-3.8l-1.121,2.805.959,1.188,1.239,1.543.165.2,9.8,2.3,1.247.292,2.564.6,1.2.28,6,1.4.292.067,2.351-.091,12.259-.474.114-.059c3.342-1.673,4.4-6.648,4.7-10.526A3.02,3.02,0,0,0,1562.058,535.339ZM1537.6,546.157l-3.646-.852-11.016-2.581-1.677-2.083v0l.568-1.412h2.723l3.247,1.645,1.057.536,5.473,2.774,3.369,1.708,1.065.541Zm20.079.825-13.813.533-2.738-9.959,7.568-.229.28,1.712h8.447l.687-3.657,1.764.1a1.837,1.837,0,0,1,1.29.632,1.856,1.856,0,0,1,.454,1.365C1561.4,540.373,1560.591,545.415,1557.683,546.982Z" transform="translate(-1519.912 -529.456)" fill="#fff"/>
        <path id="Path_24" data-name="Path 24" d="M1588.914,566.814l-4.383.106h-.012a.395.395,0,0,1-.008-.789l3.807-.094A2.989,2.989,0,0,0,1588.914,566.814Z" transform="translate(-1557.91 -551.103)" fill="#fff"/>
        <path id="Path_25" data-name="Path 25" d="M1585.238,558.044a2.843,2.843,0,0,0-.548.8l-6.155.158h-.008a.395.395,0,0,1-.012-.789Z" transform="translate(-1554.364 -546.373)" fill="#fff"/>
        <path id="Path_26" data-name="Path 26" d="M1586.253,562.863l-4.719.118h-.012a.395.395,0,0,1-.008-.789l4.711-.118a2.637,2.637,0,0,0-.016.308A2.757,2.757,0,0,0,1586.253,562.863Z" transform="translate(-1556.137 -548.758)" fill="#fff"/>
      </g>
      <g id="Group_17" data-name="Group 17" transform="translate(75.038 3.631)">
        <path id="Path_27" data-name="Path 27" d="M1641.134,510.15c-.475.615-1.749.391-2.5-.391,2.124.223,2.349.14,2.773-2.236a20.745,20.745,0,0,0,.05-3.94c0-.559-.3-.7-.774-.671a7.161,7.161,0,0,0-4.247,1.9,6.425,6.425,0,0,1-1.025.838,6.394,6.394,0,0,1,.375-.726,6.784,6.784,0,0,1,5.6-3.13,1.074,1.074,0,0,1,.75.475A8.8,8.8,0,0,1,1641.134,510.15Z" transform="translate(-1635.412 -501.794)" fill="#fff"/>
      </g>
      <g id="Group_18" data-name="Group 18" transform="translate(57.959 25.565)">
        <path id="Path_28" data-name="Path 28" d="M1596.835,555.521a3.378,3.378,0,0,0-2.458,1.03,2.848,2.848,0,0,0-.548.8,2.8,2.8,0,0,0-.237.844,2.638,2.638,0,0,0-.016.308,2.756,2.756,0,0,0,.044.481,2.62,2.62,0,0,0,.292.829,2.986,2.986,0,0,0,.6.777,3.406,3.406,0,0,0,2.328.9,2.995,2.995,0,1,0,0-5.966Zm0,5.177a2.423,2.423,0,0,1-2.414-1.732,2,2,0,0,1-.055-.462,1.51,1.51,0,0,1,.032-.327,2.4,2.4,0,0,1,2.438-1.867,2.209,2.209,0,1,1,0,4.387Z" transform="translate(-1593.576 -555.521)" fill="#fff"/>
      </g>
      <g id="Group_19" data-name="Group 19" transform="translate(50.826 15.358)">
        <path id="Path_29" data-name="Path 29" d="M1576.679,530.519a.576.576,0,1,0,.572.576A.577.577,0,0,0,1576.679,530.519Zm0,.955a.379.379,0,1,1,.375-.379A.379.379,0,0,1,1576.679,531.474Z" transform="translate(-1576.103 -530.519)" fill="#fff"/>
      </g>
      <g id="Group_20" data-name="Group 20" transform="translate(59.126 26.645)">
        <path id="Path_30" data-name="Path 30" d="M1598.527,561.973a1.911,1.911,0,1,1,2.092-1.9A2.006,2.006,0,0,1,1598.527,561.973Zm0-3.707a1.813,1.813,0,1,0,1.993,1.8A1.908,1.908,0,0,0,1598.527,558.266Z" transform="translate(-1596.436 -558.167)" fill="#fff"/>
      </g>
    </g>
  </g>
  <path id="Path_31" data-name="Path 31" d="M1620.005,486.347l-6.565,37.078a6.456,6.456,0,0,1-6.357,5.337h-36.421a6.461,6.461,0,0,1-6.357-7.585l.623-3.537.424-2.353,1.133-6.4.476-2.716,1.194-6.737.207-1.15.424-2.4.208-1.176,1.877-10.6a6.457,6.457,0,0,1,6.357-5.337h36.421A6.457,6.457,0,0,1,1620.005,486.347Z" transform="translate(-1518.237 -478.762)" fill="#fff"/>
  <g id="Group_37" data-name="Group 37" transform="translate(46.692 5.771)">
    <g id="Group_36" data-name="Group 36" transform="translate(0 0)">
      <g id="Group_23" data-name="Group 23" transform="translate(29.925 21.032)">
        <path id="Path_32" data-name="Path 32" d="M1646.087,544.417a6.73,6.73,0,0,0-2.941.666l.554,1.047a5.7,5.7,0,1,1-1.012.623l-.562-1.064a6.813,6.813,0,1,0,3.961-1.272Z" transform="translate(-1639.28 -544.417)" fill="#ed1c24"/>
      </g>
      <g id="Group_24" data-name="Group 24" transform="translate(23.065)">
        <path id="Path_33" data-name="Path 33" d="M1640.571,535.074a10.615,10.615,0,0,0-4.731,1.116l.554,1.047a9.553,9.553,0,1,1-1.021.6l-.562-1.055a10.613,10.613,0,1,0,5.76-1.7Z" transform="translate(-1626.903 -517.856)" fill="#ed1c24"/>
        <path id="Path_34" data-name="Path 34" d="M1636.193,521.491a.6.6,0,0,1-.276.071.592.592,0,0,1-.525-.316l-2.647-4.983-.564-1.057-1.239-2.331-.556-1.05-.951-1.787-.56-1.054-6.4-12.042,5.015-.836,1.992-2.948a.593.593,0,0,1,.983.663l-2.277,3.369-3.9.647,5.618,10.57.557,1.046.947,1.784.557,1.046,1.231,2.316.556,1.05,2.683,5.046A.587.587,0,0,1,1636.193,521.491Z" transform="translate(-1622.474 -492.899)" fill="#ed1c24"/>
      </g>
      <g id="Group_25" data-name="Group 25" transform="translate(26.118 14.016)">
        <path id="Path_35" data-name="Path 35" d="M1633.3,532.3l.56,1.054a12.385,12.385,0,0,0-2.864,2.458.6.6,0,0,1-.45.2.585.585,0,0,1-.387-.146.593.593,0,0,1-.063-.833A13.834,13.834,0,0,1,1633.3,532.3Z" transform="translate(-1629.955 -530.23)" fill="#ed1c24"/>
        <path id="Path_36" data-name="Path 36" d="M1651.911,528.784a.588.588,0,0,1-.754.359,12.654,12.654,0,0,0-9.919.627l-.557-1.046a13.82,13.82,0,0,1,10.87-.694A.589.589,0,0,1,1651.911,528.784Z" transform="translate(-1636.303 -527.233)" fill="#ed1c24"/>
      </g>
      <g id="Group_26" data-name="Group 26" transform="translate(3.857 10.169)">
        <path id="Path_37" data-name="Path 37" d="M1579.11,517.808c-.069.078-.147.173-.216.26-.13.156-.242.311-.346.458a3.4,3.4,0,0,0-.234.372c-.017.026-.034.061-.052.087h-2.837l.208-1.176Z" transform="translate(-1575.426 -517.808)" fill="#ed1c24"/>
      </g>
      <g id="Group_27" data-name="Group 27" transform="translate(3.226 5.679)">
        <path id="Path_38" data-name="Path 38" d="M1581.979,526.229a.386.386,0,0,1-.069-.1,1.225,1.225,0,0,0,.113.173h.009A.4.4,0,0,1,1581.979,526.229Z" transform="translate(-1578.631 -518.246)" fill="#ed1c24"/>
        <path id="Path_39" data-name="Path 39" d="M1592.985,507.893a2.713,2.713,0,0,0-.268-.165,9.572,9.572,0,0,0-6.573-.631,13.653,13.653,0,0,0-7.966,4.2c-.173.2-.329.407-.484.623a.959.959,0,0,0-.061.1,3.417,3.417,0,0,0-.233.372,2.455,2.455,0,0,0-.242,2.309.389.389,0,0,0,.069.1.345.345,0,0,0,.043.078h.009v.009h-3.192l-.208,1.15,5.458.026h1.2l7.369.026a15.546,15.546,0,0,0,3.589-.26,4.9,4.9,0,0,0,3.407-2.387C1595.857,511.517,1594.784,509.078,1592.985,507.893Zm1.081,4.264a2.748,2.748,0,0,1-.112.441,3.385,3.385,0,0,1-2.249,1.972,10.164,10.164,0,0,1-3.071.311,62.935,62.935,0,0,1-9.73-.441c-.32-.043-.709-.156-.787-.467a.775.775,0,0,1,.061-.441c.692-1.946,2.923-3.39,4.7-4.247a12.71,12.71,0,0,1,6.279-1.272,6.3,6.3,0,0,1,3.615,1.168A3.35,3.35,0,0,1,1594.066,512.157Z" transform="translate(-1573.88 -506.811)" fill="#ed1c24"/>
      </g>
      <g id="Group_28" data-name="Group 28" transform="translate(11.091 16.977)">
        <path id="Path_40" data-name="Path 40" d="M1599.806,535.273h-6.266a.395.395,0,1,1,0-.789h6.266a.395.395,0,0,1,0,.789Z" transform="translate(-1593.145 -534.484)" fill="#ed1c24"/>
      </g>
      <g id="Group_29" data-name="Group 29" transform="translate(11.88 18.813)">
        <path id="Path_41" data-name="Path 41" d="M1600.161,539.772h-4.688a.395.395,0,1,1,0-.789h4.688a.395.395,0,0,1,0,.789Z" transform="translate(-1595.078 -538.983)" fill="#ed1c24"/>
      </g>
      <g id="Group_30" data-name="Group 30" transform="translate(12.669 20.65)">
        <path id="Path_42" data-name="Path 42" d="M1600.515,544.27h-3.11a.395.395,0,1,1,0-.789h3.11a.395.395,0,1,1,0,.789Z" transform="translate(-1597.011 -543.481)" fill="#ed1c24"/>
      </g>
      <g id="Group_31" data-name="Group 31" transform="translate(0 14.926)">
        <path id="Path_43" data-name="Path 43" d="M1589.321,535.341a3.045,3.045,0,0,0-2.119-1.038l-2.794-.164-.709,3.719h-6.452l-1.384-8.4h-1.2l1.107,6.686-7.7.234-.06-.208-.476,2.716,2.223,8.113-3.356-1.713-.424,2.353,4.368,1.02.294.061,2.352-.086,12.255-.476.121-.061c3.339-1.669,4.394-6.642,4.688-10.526A3.009,3.009,0,0,0,1589.321,535.341Zm-4.376,11.641-13.812.536-2.742-9.964,7.568-.225.277,1.713h8.45l.683-3.659,1.764.1a1.848,1.848,0,0,1,1.3.631,1.873,1.873,0,0,1,.45,1.366C1588.655,540.375,1587.85,545.417,1584.944,546.983Z" transform="translate(-1565.977 -529.46)" fill="#ed1c24"/>
        <path id="Path_44" data-name="Path 44" d="M1588.914,566.814l-4.383.106h-.012a.395.395,0,0,1-.008-.789l3.807-.094A2.989,2.989,0,0,0,1588.914,566.814Z" transform="translate(-1576.716 -551.105)" fill="#ed1c24"/>
        <path id="Path_45" data-name="Path 45" d="M1585.238,558.044a2.843,2.843,0,0,0-.548.8l-6.155.158h-.008a.395.395,0,0,1-.012-.789Z" transform="translate(-1573.17 -546.375)" fill="#ed1c24"/>
        <path id="Path_46" data-name="Path 46" d="M1586.253,562.863l-4.719.118h-.012a.395.395,0,0,1-.008-.789l4.711-.118a2.637,2.637,0,0,0-.016.308A2.757,2.757,0,0,0,1586.253,562.863Z" transform="translate(-1574.943 -548.76)" fill="#ed1c24"/>
      </g>
      <g id="Group_32" data-name="Group 32" transform="translate(28.346 3.631)">
        <path id="Path_47" data-name="Path 47" d="M1641.134,510.15c-.475.615-1.749.391-2.5-.391,2.124.223,2.349.14,2.773-2.236a20.745,20.745,0,0,0,.05-3.94c0-.559-.3-.7-.774-.671a7.161,7.161,0,0,0-4.247,1.9,6.425,6.425,0,0,1-1.025.838,6.394,6.394,0,0,1,.375-.726,6.784,6.784,0,0,1,5.6-3.13,1.074,1.074,0,0,1,.75.475A8.8,8.8,0,0,1,1641.134,510.15Z" transform="translate(-1635.412 -501.794)" fill="#ed1c24"/>
      </g>
      <g id="Group_33" data-name="Group 33" transform="translate(11.27 25.564)">
        <path id="Path_48" data-name="Path 48" d="M1596.844,555.519a3.379,3.379,0,0,0-2.465,1.029,2.936,2.936,0,0,0-.545.8,2.744,2.744,0,0,0-.234.839,1.9,1.9,0,0,0-.017.312,3.032,3.032,0,0,0,.043.484,2.654,2.654,0,0,0,.285.822,3.1,3.1,0,0,0,.6.778,3.422,3.422,0,0,0,2.336.9,2.995,2.995,0,1,0,0-5.968Zm0,5.181a2.432,2.432,0,0,1-2.422-1.739,2.007,2.007,0,0,1-.052-.458,1.382,1.382,0,0,1,.035-.329,2.394,2.394,0,0,1,2.439-1.869,2.212,2.212,0,1,1,0,4.394Z" transform="translate(-1593.583 -555.519)" fill="#ed1c24"/>
      </g>
      <g id="Group_34" data-name="Group 34" transform="translate(3.857 15.509)">
        <path id="Path_49" data-name="Path 49" d="M1576.006,530.888a.575.575,0,1,0,.571.58A.58.58,0,0,0,1576.006,530.888Zm0,.952a.376.376,0,1,1,0-.752.376.376,0,0,1,0,.752Z" transform="translate(-1575.426 -530.888)" fill="#ed1c24"/>
      </g>
      <g id="Group_35" data-name="Group 35" transform="translate(12.438 26.645)">
        <path id="Path_50" data-name="Path 50" d="M1598.536,558.167a1.91,1.91,0,1,0,2.084,1.9A2.005,2.005,0,0,0,1598.536,558.167Zm0,3.71a1.816,1.816,0,1,1,1.989-1.807A1.91,1.91,0,0,1,1598.536,561.877Z" transform="translate(-1596.443 -558.167)" fill="#ed1c24"/>
      </g>
    </g>
  </g>
  <g id="Group_38" data-name="Group 38" transform="translate(107.679 11.247)">
    <path id="Path_51" data-name="Path 51" d="M1731.087,512.893a9.594,9.594,0,0,0-7.357,3.347l1.744-9.928h-5.237l-4.871,27.505h5.242l.518-2.936c.934,1.783,3.015,3.268,6.244,3.268,5.242,0,10.113-4.275,11.26-10.7C1739.75,517.016,1736.364,512.893,1731.087,512.893Zm2.233,10.552c-.709,3.9-3.718,6.131-6.542,6.131s-5.057-2.154-4.348-6.052a6.886,6.886,0,0,1,6.5-6.058C1731.757,517.466,1733.984,519.547,1733.321,523.445Z" transform="translate(-1715.366 -506.312)" fill="#fff"/>
    <path id="Path_52" data-name="Path 52" d="M1783.437,514.991a4.983,4.983,0,0,1-2.857-.827l-3.488,19.647h5.237l3.42-19.271A6.288,6.288,0,0,1,1783.437,514.991Zm1.457-8.679a3.805,3.805,0,0,0-3.752,3.049,2.51,2.51,0,0,0,2.678,3.048,3.783,3.783,0,0,0,3.712-3.048A2.5,2.5,0,0,0,1784.894,506.312Zm0,0a3.805,3.805,0,0,0-3.752,3.049,2.51,2.51,0,0,0,2.678,3.048,3.783,3.783,0,0,0,3.712-3.048A2.5,2.5,0,0,0,1784.894,506.312Z" transform="translate(-1751.893 -506.312)" fill="#fff"/>
    <path id="Path_53" data-name="Path 53" d="M1824.958,513.225h-6.8l-8.4,8.7,2.751-15.609h-5.242l-4.865,27.505h5.242l1.558-8.736,5.428,8.736h6.722l-7.284-10.293Z" transform="translate(-1766.871 -506.312)" fill="#fff"/>
    <path id="Path_54" data-name="Path 54" d="M1868.707,522.432c-6.092,0-11.036,4.123-12.189,10.631-1.187,6.463,2.492,10.625,8.471,10.625a11.8,11.8,0,0,0,10.777-6.8h-5.608a5.1,5.1,0,0,1-4.534,2.492c-2.638,0-4.427-1.749-4.089-4.871h15.052a15.5,15.5,0,0,0,.484-1.929C1878.146,526.482,1874.653,522.432,1868.707,522.432Zm3.195,8.921h-9.81a6.014,6.014,0,0,1,5.72-4.646C1870.49,526.707,1872.352,528.417,1871.9,531.353Z" transform="translate(-1798.762 -515.851)" fill="#fff"/>
    <path id="Path_55" data-name="Path 55" d="M1921.556,526.37c2.193,0,3.386,1.153,3.234,2.863h4.832c.411-3.977-2.824-6.8-7.841-6.8-4.978,0-8.364,2.565-8.364,6.2,0,6.694,10.22,5.653,10.22,8.994,0,1.451-1.6,2.12-3.454,2.12-2.193,0-3.459-1.192-3.307-2.9h-5.057c-.591,4.016,3.049,6.84,7.993,6.84,5.051,0,8.842-2.306,8.842-6.2,0-6.4-10.147-5.54-10.147-8.994C1918.508,527.19,1919.773,526.37,1921.556,526.37Z" transform="translate(-1831.582 -515.851)" fill="#fff"/>
    <path id="Path_56" data-name="Path 56" d="M1980.28,522.764l-.518,2.936c-.894-1.71-2.9-3.268-6.21-3.268-5.237,0-10.142,4.123-11.261,10.552-1.147,6.429,2.267,10.7,7.47,10.7a9.836,9.836,0,0,0,7.436-3.341l-.557,3.01h5.237l3.645-20.593Zm-1.823,10.3a6.855,6.855,0,0,1-6.5,6.052c-2.784,0-5.017-2.227-4.348-6.131a6.845,6.845,0,0,1,6.5-5.979C1976.939,527.005,1979.167,529.159,1978.458,533.063Z" transform="translate(-1861.354 -515.851)" fill="#fff"/>
    <path id="Path_57" data-name="Path 57" d="M2027.938,506.312l-4.865,27.505h5.237l4.871-27.505Z" transform="translate(-1897.454 -506.312)" fill="#fff"/>
    <path id="Path_58" data-name="Path 58" d="M2061.518,522.432c-6.092,0-11.036,4.123-12.189,10.631-1.187,6.463,2.492,10.625,8.471,10.625a11.811,11.811,0,0,0,10.782-6.8h-5.614a5.1,5.1,0,0,1-4.533,2.492c-2.638,0-4.427-1.749-4.089-4.871H2069.4a15.59,15.59,0,0,0,.484-1.929C2070.957,526.482,2067.463,522.432,2061.518,522.432Zm3.195,8.921h-9.81a6.015,6.015,0,0,1,5.726-4.646C2063.3,526.707,2065.163,528.417,2064.713,531.353Z" transform="translate(-1912.86 -515.851)" fill="#fff"/>
    <path id="Path_59" data-name="Path 59" d="M2114.367,526.37c2.193,0,3.386,1.153,3.234,2.863h4.832c.41-3.977-2.824-6.8-7.841-6.8-4.978,0-8.364,2.565-8.364,6.2,0,6.694,10.22,5.653,10.22,8.994,0,1.451-1.6,2.12-3.454,2.12-2.194,0-3.459-1.192-3.308-2.9h-5.056c-.591,4.016,3.049,6.84,7.993,6.84,5.051,0,8.842-2.306,8.842-6.2,0-6.4-10.142-5.54-10.142-8.994C2111.324,527.19,2112.584,526.37,2114.367,526.37Z" transform="translate(-1945.679 -515.851)" fill="#fff"/>
  </g>
  <g id="Group_39" data-name="Group 39" transform="translate(286.19 1.998)">
    <path id="Path_60" data-name="Path 60" d="M2155.761,490.91h-3.128l1.288-7.253h2.993c1.518,0,2.224.79,2.027,1.871a2.086,2.086,0,0,1-1.518,1.662,1.444,1.444,0,0,1,1.081,1.756A2.537,2.537,0,0,1,2155.761,490.91Zm.322-3.148h-1.435l-.343,2h1.465a1.172,1.172,0,0,0,1.289-.987C2157.174,488.146,2156.789,487.761,2156.083,487.761Zm.416-2.961h-1.32l-.333,1.87h1.33a1.135,1.135,0,0,0,1.247-.925C2157.517,485.153,2157.184,484.8,2156.5,484.8Z" transform="translate(-2152.633 -483.657)" fill="#ed1c24"/>
    <path id="Path_61" data-name="Path 61" d="M2176.008,487.294a4.311,4.311,0,0,1-4.468,3.616H2169l1.288-7.253h2.535C2175.146,483.657,2176.4,485.091,2176.008,487.294Zm-4.3,2.431a2.712,2.712,0,0,0,2.816-2.431c.26-1.506-.426-2.421-1.964-2.421h-1.018l-.852,4.852Z" transform="translate(-2162.321 -483.657)" fill="#ed1c24"/>
  </g>
</svg>
